<?xml version="1.0" encoding="UTF-8" standalone="no"?>
<svg
   viewBox="0 0 565.21088 126.82721"
   version="1.1"
   id="svg14"
   width="565.21088"
   height="126.8272"
   xmlns="http://www.w3.org/2000/svg"
   xmlns:svg="http://www.w3.org/2000/svg">
  <defs
     id="defs18" />
  <g
     id="Boundingbox"
     transform="translate(-95,-95)">
    <rect
       width="755.211"
       height="316.82709"
       fill="none"
       stroke-width="0"
       id="rect2"
       x="0"
       y="0" />
  </g>
  <g
     id="Logo"
     transform="translate(-95,-95)">
    <path
       d="m 601.2526,198.5536 c 0,-4.0067 1.6476,-6.4032 4.7556,-6.4032 3.0705,0 4.7556,2.3965 4.7556,6.4032 0,4.0067 -1.6851,6.4032 -4.7556,6.4032 -3.108,0 -4.7556,-2.3965 -4.7556,-6.4032 m 4.9802,18.2735 c 4.7181,0 9.998,-2.0221 9.998,-8.1632 v -19.9585 h -5.6918 v 4.4935 c -0.8987,-2.6586 -3.1454,-4.9428 -6.7402,-4.9428 -4.9802,0 -8.3878,4.1939 -8.3878,10.2976 0,6.1037 3.3701,10.2976 8.3878,10.2976 3.1454,0 5.6168,-1.8723 6.7402,-4.4186 v 4.3437 c 0,2.8459 -1.8723,4.1565 -4.3063,4.1565 -2.0221,0 -3.7071,-0.9361 -4.119,-2.8459 h -5.7666 c 0.5617,4.6807 5.0926,6.7402 9.8857,6.7402 m -24.7141,-7.7887 h 5.7292 v -10.5222 c 0,-3.445 1.7225,-4.6433 5.2798,-4.6433 h 1.4604 v -5.6169 c -3.9318,0 -5.9913,2.5838 -6.7777,5.7666 v -5.3173 h -5.6918 v 20.333 z m -16.5135,0.4493 c 3.5573,0 5.4671,-2.0221 6.4032,-4.456 v 4.0067 h 5.6543 v -20.333 h -5.7292 v 11.5707 c 0,3.4824 -1.2357,5.2049 -3.6323,5.2049 -2.359,0 -3.6696,-1.6102 -3.6696,-5.1301 v -11.6456 h -5.7292 v 12.8813 c 0,4.4935 1.9846,7.901 6.7028,7.901 m -25.2758,-10.5971 c 0,-4.1565 1.6476,-6.7402 4.7556,-6.7402 3.108,0 4.7556,2.5837 4.7556,6.7402 0,4.119 -1.6476,6.7028 -4.7556,6.7028 -3.108,0 -4.7556,-2.5838 -4.7556,-6.7028 m 6.9649,10.5971 c 5.0177,0 8.3878,-4.4935 8.3878,-10.5971 0,-6.1036 -3.3701,-10.6346 -8.3878,-10.6346 -3.5573,0 -5.8415,2.3591 -6.7402,5.0177 v -12.6941 h -5.6917 v 28.4587 h 5.6917 v -4.0816 c 1.0859,2.6212 3.5948,4.5309 6.7402,4.5309 m -25.2384,0 c 5.4296,0 9.5486,-2.3216 9.5486,-6.4781 0,-3.2952 -2.022,-5.1301 -6.2908,-6.0662 l -3.5948,-0.7864 c -2.097,-0.4493 -3.2578,-0.8987 -3.2578,-2.0595 0,-1.2732 1.5727,-1.9472 3.4075,-1.9472 1.6476,0 3.108,0.674 3.5573,1.9472 h 5.7666 c -0.8987,-3.9318 -4.7556,-5.8415 -9.3614,-5.8415 -4.8679,0 -8.8372,2.434 -8.8372,6.2909 0,3.0331 2.0969,4.8305 5.9539,5.6543 l 3.5948,0.7864 c 2.771,0.6366 3.5948,1.2357 3.5948,2.4714 0,1.3106 -1.348,2.1344 -3.8569,2.1344 -1.7974,0 -3.5199,-0.6366 -3.9318,-2.6961 h -5.7666 c 0.7115,4.456 4.456,6.5904 9.4737,6.5904 m -27.5226,-10.9341 c 0,-4.0067 1.6476,-6.4032 4.7556,-6.4032 3.0705,0 4.7556,2.3965 4.7556,6.4032 0,4.0067 -1.6851,6.4032 -4.7556,6.4032 -3.108,0 -4.7556,-2.3965 -4.7556,-6.4032 m 4.9803,18.2735 c 4.7181,0 9.998,-2.0221 9.998,-8.1632 v -19.9585 h -5.6917 v 4.4935 c -0.8987,-2.6586 -3.1454,-4.9428 -6.7402,-4.9428 -4.9803,0 -8.3878,4.1939 -8.3878,10.2976 0,6.1037 3.3701,10.2976 8.3878,10.2976 3.1454,0 5.6168,-1.8723 6.7402,-4.4186 v 4.3437 c 0,2.8459 -1.8723,4.1565 -4.3063,4.1565 -2.0221,0 -3.7071,-0.9361 -4.119,-2.8459 h -5.7666 c 0.5617,4.6807 5.0926,6.7402 9.8857,6.7402 m -26.3992,-7.3393 c 3.5573,0 5.4671,-2.0221 6.4032,-4.456 v 4.0067 h 5.6543 v -20.333 h -5.7292 v 11.5707 c 0,3.4824 -1.2357,5.2049 -3.6322,5.2049 -2.3591,0 -3.6697,-1.6102 -3.6697,-5.1301 v -11.6456 h -5.7292 v 12.8813 c 0,4.4935 1.9846,7.901 6.7028,7.901 m -27.897,-13.0685 4.6433,-14.6413 4.6432,14.6413 z m -10.2227,12.6192 h 6.216 l 2.434,-7.6764 h 12.432 l 2.434,7.6764 h 6.216 l -9.4363,-28.4587 h -10.8592 l -9.4363,28.4587 z"
       fill="#ed145b"
       stroke-width="0"
       id="path5" />
    <path
       d="m 640.4949,156.4665 c 0.4868,-3.1829 2.1719,-4.6058 4.456,-4.6058 2.3965,0 4.119,1.7225 4.4186,4.6058 z m 4.456,12.7315 c 4.8679,0 8.4627,-2.1718 9.8107,-6.4781 h -5.7666 c -0.7115,1.6476 -1.7974,2.5838 -4.0067,2.5838 -2.359,0 -4.119,-1.6102 -4.5309,-5.0177 h 14.6412 c 0.0749,-0.5617 0.1123,-1.1234 0.1123,-1.6102 0,-6.4032 -3.9692,-10.7095 -10.2601,-10.7095 -6.1785,0 -10.335,4.3437 -10.335,10.5971 0,6.2534 4.0067,10.6346 10.335,10.6346 m -19.4343,-0.4493 h 5.7292 V 140.29 h -5.7292 z m -16.5135,0.4493 c 3.5573,0 5.4671,-2.0221 6.4032,-4.456 v 4.0067 h 5.6543 v -20.333 h -5.7292 v 11.5707 c 0,3.4824 -1.2357,5.2049 -3.6323,5.2049 -2.359,0 -3.6696,-1.6102 -3.6696,-5.1301 v -11.6456 h -5.7292 v 12.8813 c 0,4.4935 1.9846,7.901 6.7028,7.901 m -29.6944,-0.4493 h 5.7292 v -11.5707 c 0,-3.5948 1.3855,-5.205 3.7446,-5.205 2.3965,0 3.7446,1.6102 3.7446,5.1301 v 11.6456 h 5.7292 v -12.8813 c 0,-4.4935 -2.0221,-7.901 -6.7777,-7.901 -3.5573,0 -5.5419,2.0595 -6.4781,4.6058 v -12.2822 h -5.6918 z m -13.0685,0.4493 c 5.0926,0 9.1367,-2.6961 10.1103,-7.6764 h -5.7666 c -0.6366,2.3591 -1.9846,3.782 -4.3437,3.782 -2.9582,0 -4.6807,-2.4714 -4.6807,-6.7402 0,-4.119 1.6476,-6.7028 4.6807,-6.7028 2.359,0 3.6696,1.7225 4.1565,3.8569 h 5.7666 c -0.8613,-4.7556 -4.5684,-7.7513 -9.9231,-7.7513 -6.216,0 -10.5223,4.2314 -10.5223,10.5971 0,6.4032 4.2314,10.6346 10.5223,10.6346 m -22.5798,0 c 5.4296,0 9.5486,-2.3216 9.5486,-6.4781 0,-3.2952 -2.0221,-5.1301 -6.2909,-6.0662 l -3.5948,-0.7864 c -2.0969,-0.4494 -3.2578,-0.8987 -3.2578,-2.0595 0,-1.2732 1.5727,-1.9472 3.4075,-1.9472 1.6476,0 3.108,0.674 3.5573,1.9472 h 5.7666 c -0.8987,-3.9318 -4.7556,-5.8415 -9.3614,-5.8415 -4.8679,0 -8.8372,2.434 -8.8372,6.2909 0,3.0331 2.0969,4.8305 5.9538,5.6543 l 3.5948,0.7864 c 2.7709,0.6366 3.5948,1.2357 3.5948,2.4714 0,1.3106 -1.348,2.1344 -3.8569,2.1344 -1.7974,0 -3.5199,-0.6366 -3.9318,-2.6961 h -5.7666 c 0.7115,4.456 4.456,6.5904 9.4738,6.5904 m -31.3795,-0.4493 h 5.7292 v -11.5707 c 0,-3.5948 1.3855,-5.205 3.7446,-5.205 2.3973,0 3.7446,1.6102 3.7446,5.1301 v 11.6456 h 5.7299 v -12.8813 c 0,-4.4935 -2.0221,-7.901 -6.7784,-7.901 -3.5573,0 -5.5412,2.0595 -6.4773,4.6058 v -12.2822 h -5.6925 v 28.4587 z m -13.0678,0.4493 c 5.0926,0 9.1368,-2.6961 10.1103,-7.6764 h -5.7666 c -0.6366,2.3591 -1.9846,3.782 -4.3437,3.782 -2.9582,0 -4.6807,-2.4714 -4.6807,-6.7402 0,-4.119 1.6476,-6.7028 4.6807,-6.7028 2.3591,0 3.6697,1.7225 4.1565,3.8569 h 5.7666 c -0.8613,-4.7556 -4.5684,-7.7513 -9.9231,-7.7513 -6.216,0 -10.5222,4.2314 -10.5222,10.5971 0,6.4032 4.2313,10.6346 10.5222,10.6346 m -28.5703,-10.5971 c 0,-4.1565 1.6476,-6.7402 4.7556,-6.7402 3.108,0 4.7556,2.5838 4.7556,6.7402 0,4.119 -1.6476,6.7028 -4.7556,6.7028 -3.108,0 -4.7556,-2.5838 -4.7556,-6.7028 m 4.7556,10.5971 c 6.5156,0 10.5971,-4.3811 10.5971,-10.5971 0,-6.2534 -4.0816,-10.6346 -10.5971,-10.6346 -6.5155,0 -10.5971,4.3811 -10.5971,10.6346 0,6.216 4.0816,10.5971 10.5971,10.5971 m -20.0716,-0.4493 h 5.9164 v -28.4587 h -5.9164 v 11.2337 h -12.02 v -11.2337 h -5.9164 v 28.4587 h 5.9164 v -11.9077 h 12.02 z"
       fill="#ed145b"
       stroke-width="0"
       id="path7" />
    <path
       d="m 631.0204,116.1769 c 0.4868,-3.1829 2.1719,-4.6058 4.456,-4.6058 2.3965,0 4.119,1.7225 4.4186,4.6058 z m 4.456,12.7315 c 4.8679,0 8.4627,-2.1718 9.8107,-6.4781 h -5.7666 c -0.7115,1.6476 -1.7974,2.5838 -4.0067,2.5838 -2.359,0 -4.119,-1.6102 -4.5309,-5.0177 h 14.6412 c 0.0749,-0.5617 0.1123,-1.1234 0.1123,-1.6102 0,-6.4032 -3.9692,-10.7095 -10.2601,-10.7095 -6.1785,0 -10.335,4.3437 -10.335,10.5971 0,6.2534 4.0067,10.6346 10.335,10.6346 m -32.4279,-0.4493 h 5.7292 v -11.5707 c 0,-3.5948 1.3855,-5.2049 3.7446,-5.2049 2.3965,0 3.7446,1.6102 3.7446,5.13 v 11.6456 h 5.7292 v -12.8813 c 0,-4.4935 -2.0221,-7.901 -6.7777,-7.901 -3.5573,0 -5.542,2.0595 -6.4781,4.6058 v -12.2822 h -5.6917 v 28.4587 z m -13.0678,0.4493 c 5.0926,0 9.1368,-2.6961 10.1103,-7.6764 h -5.7666 c -0.6366,2.3591 -1.9846,3.782 -4.3437,3.782 -2.9582,0 -4.6807,-2.4714 -4.6807,-6.7402 0,-4.119 1.6476,-6.7028 4.6807,-6.7028 2.3591,0 3.6697,1.7225 4.1565,3.8569 h 5.7666 c -0.8612,-4.7556 -4.5684,-7.7513 -9.9231,-7.7513 -6.216,0 -10.5222,4.2314 -10.5222,10.5971 0,6.4032 4.2314,10.6346 10.5222,10.6346 m -22.5797,0 c 5.4296,0 9.5486,-2.3216 9.5486,-6.4781 0,-3.2952 -2.0221,-5.13 -6.2909,-6.0662 l -3.5948,-0.7864 c -2.0969,-0.4494 -3.2578,-0.8987 -3.2578,-2.0595 0,-1.2732 1.5727,-1.9472 3.4075,-1.9472 1.6476,0 3.108,0.674 3.5573,1.9472 h 5.7666 c -0.8987,-3.9318 -4.7556,-5.8415 -9.3614,-5.8415 -4.8679,0 -8.8372,2.434 -8.8372,6.2909 0,3.0331 2.097,4.8305 5.9539,5.6543 l 3.5948,0.7864 c 2.771,0.6366 3.5948,1.2357 3.5948,2.4714 0,1.3106 -1.3481,2.1344 -3.8569,2.1344 -1.7974,0 -3.5199,-0.6366 -3.9318,-2.6961 h -5.7666 c 0.7115,4.456 4.456,6.5904 9.4738,6.5904 m -18.4607,-23.5159 h 5.9164 v -5.3922 h -5.9164 z m 0.0749,23.0665 h 5.7292 v -20.333 h -5.7292 z m -23.1789,0 h 5.7292 v -11.5707 c 0,-3.5948 1.3855,-5.2049 3.7446,-5.2049 2.3965,0 3.7446,1.6102 3.7446,5.13 v 11.6456 h 5.7292 v -12.8813 c 0,-4.4935 -2.0221,-7.901 -6.7777,-7.901 -3.5573,0 -5.542,2.0595 -6.4781,4.6058 v -4.1565 h -5.6917 v 20.333 z m -23.1789,0 h 5.7292 v -11.5707 c 0,-3.5948 1.3855,-5.2049 3.7446,-5.2049 2.3965,0 3.7446,1.6102 3.7446,5.13 v 11.6456 h 5.7292 v -12.8813 c 0,-4.4935 -2.0221,-7.901 -6.7777,-7.901 -3.5573,0 -5.542,2.0595 -6.4781,4.6058 v -12.2822 h -5.6917 v 28.4587 z m -13.0678,0.4493 c 5.0926,0 9.1367,-2.6961 10.1103,-7.6764 h -5.7666 c -0.6366,2.3591 -1.9846,3.782 -4.3437,3.782 -2.9582,0 -4.6807,-2.4714 -4.6807,-6.7402 0,-4.119 1.6476,-6.7028 4.6807,-6.7028 2.359,0 3.6696,1.7225 4.1565,3.8569 h 5.7666 c -0.8613,-4.7556 -4.5684,-7.7513 -9.9231,-7.7513 -6.216,0 -10.5222,4.2314 -10.5222,10.5971 0,6.4032 4.2314,10.6346 10.5222,10.6346 m -27.8596,-12.7315 c 0.4868,-3.1829 2.1719,-4.6058 4.456,-4.6058 2.3965,0 4.119,1.7225 4.4186,4.6058 z m 4.456,12.7315 c 4.8679,0 8.4627,-2.1718 9.8108,-6.4781 H 470.23 c -0.7115,1.6476 -1.7974,2.5838 -4.0067,2.5838 -2.3591,0 -4.119,-1.6102 -4.5309,-5.0177 h 14.6412 c 0.0749,-0.5617 0.1124,-1.1234 0.1124,-1.6102 0,-6.4032 -3.9693,-10.7095 -10.2601,-10.7095 -6.1785,0 -10.335,4.3437 -10.335,10.5971 0,6.2534 4.0067,10.6346 10.335,10.6346 m -22.2802,-0.4493 h 5.9164 v -23.5159 h 8.8372 v -4.9428 h -23.5908 v 4.9428 h 8.8372 z"
       fill="#ed145b"
       stroke-width="0"
       id="path9" />
    <path
       d="m 355.3802,169.1536 h 21.6639 v 37.4459 z m -63.1278,-21.5209 v -44.6198 l 25.8249,44.6198 z m -94.6917,61.406 h 22.9558 v -39.8851 h 40.4588 V 147.6327 H 220.5165 V 100 h -22.9558 z m -64.5619,0 h 22.9551 v -87.5178 h 32.9988 V 100 H 100 v 21.5209 h 32.9988 z m 242.4674,0 H 400 v -6.0258 c 0,-28.2642 -17.0731,-55.3802 -49.9281,-55.3802 h -7.0301 L 325.3943,117.2169 C 318.651,105.5952 309.0387,100 293.5436,100 h -24.247 v 109.0387 h 22.9558 v -39.8851 h 38.3071 l 13.0559,22.6682 c 6.7433,11.6217 16.3556,17.2169 31.8507,17.2169"
       fill="#ed145b"
       stroke-width="0"
       id="path11" />
  </g>
</svg>
